<svg width="55" height="54" viewBox="0 0 55 54" fill="none" xmlns="http://www.w3.org/2000/svg">
<g clip-path="url(#clip0_522_1552)">
<path d="M27.5033 53.6593C42.2249 53.6593 54.159 41.7251 54.159 27.0036C54.159 12.2821 42.2249 0.3479 27.5033 0.3479C12.7818 0.3479 0.847656 12.2821 0.847656 27.0036C0.847656 41.7251 12.7818 53.6593 27.5033 53.6593Z" fill="#FECCE6" stroke="#FEA3D0" stroke-miterlimit="10"/>
<path d="M24.7557 21.5777V22.343C24.7557 22.5367 24.6787 22.7225 24.5418 22.8594C24.4048 22.9964 24.219 23.0733 24.0253 23.0733C23.8316 23.0733 23.6458 22.9964 23.5088 22.8594C23.3719 22.7225 23.2949 22.5367 23.2949 22.343V21.5777C23.2949 21.384 23.3719 21.1983 23.5088 21.0613C23.6458 20.9243 23.8316 20.8474 24.0253 20.8474C24.219 20.8474 24.4048 20.9243 24.5418 21.0613C24.6787 21.1983 24.7557 21.384 24.7557 21.5777Z" fill="#A60E44"/>
<path d="M31.1756 21.5777V22.343C31.1756 22.5367 31.0987 22.7225 30.9617 22.8594C30.8247 22.9964 30.6389 23.0733 30.4452 23.0733C30.2515 23.0733 30.0657 22.9964 29.9288 22.8594C29.7918 22.7225 29.7148 22.5367 29.7148 22.343V21.5777C29.7148 21.384 29.7918 21.1983 29.9288 21.0613C30.0657 20.9243 30.2515 20.8474 30.4452 20.8474C30.6389 20.8474 30.8247 20.9243 30.9617 21.0613C31.0987 21.1983 31.1756 21.384 31.1756 21.5777Z" fill="#A60E44"/>
<path d="M27.0993 24.2697C30.0882 24.2697 32.5112 23.1952 32.5112 21.8698C32.5112 20.5444 30.0882 19.47 27.0993 19.47C24.1105 19.47 21.6875 20.5444 21.6875 21.8698C21.6875 23.1952 24.1105 24.2697 27.0993 24.2697Z" fill="#A60E44"/>
<path d="M37.3738 17.6406C37.122 16.0208 36.6 14.4548 35.8296 13.0078C35.2669 11.912 34.4811 10.9461 33.5227 10.1722C32.5643 9.39826 31.4545 8.8335 30.2647 8.51424H30.1534C29.119 8.27487 28.0543 8.19273 26.9954 8.27071C26.1089 8.332 25.233 8.50022 24.3869 8.77162H24.2825C22.6872 9.29346 21.2509 10.2127 20.1089 11.4427C18.5395 13.1461 17.5931 15.3307 17.4238 17.6406C17.4238 17.8215 17.4238 18.0023 17.4238 18.1831C17.4238 18.364 17.4238 18.6561 17.4238 18.8787C17.4491 19.1702 17.5003 19.459 17.5769 19.7414C17.6964 20.1268 17.8428 20.5033 18.0151 20.8682V20.9308C18.1125 21.1604 18.2168 21.3899 18.3212 21.6264C18.5641 22.3003 18.7252 23.0009 18.8011 23.7132C18.8563 24.1485 18.9353 24.5804 19.0376 25.0071C19.1434 25.4301 19.2758 25.846 19.4341 26.2522C20.0967 28.0573 21.3621 29.5782 23.0165 30.558C23.3996 30.7841 23.8024 30.975 24.2199 31.1284C25.2378 31.51 26.3122 31.7192 27.3988 31.7475H27.6979C28.7251 31.7573 29.7464 31.5902 30.7169 31.2536C31.1244 31.1145 31.518 30.9375 31.8925 30.7249C33.5551 29.7732 34.8194 28.2546 35.454 26.4469C35.6256 25.9929 35.7673 25.5282 35.8783 25.0557C35.9478 24.7636 36.0105 24.4645 36.0592 24.1515C36.2052 23.5324 36.3791 22.9968 36.5669 22.4334C36.6295 22.2525 36.6852 22.0716 36.7478 21.8838C36.7965 21.7308 36.8452 21.5638 36.8939 21.3968C36.9165 21.3331 36.9351 21.2682 36.9495 21.2021C37.04 20.8891 37.1234 20.5483 37.193 20.1726C37.2625 19.797 37.346 19.3449 37.4017 18.8649C37.4017 18.6701 37.4434 18.4684 37.4573 18.2527V18.1623C37.4573 18.1623 37.4156 17.9397 37.3738 17.6406ZM35.8852 20.3673C35.8852 20.4925 35.8226 20.6108 35.7948 20.7221C35.6835 21.1325 35.5653 21.5082 35.4401 21.8908L35.3844 22.0577C35.175 22.6628 34.9962 23.278 34.8488 23.9011V23.9428C34.5219 25.967 33.1446 30.6693 27.4336 30.5093C26.3477 30.4872 25.2769 30.2508 24.2825 29.8137C23.991 29.6816 23.7097 29.5281 23.4408 29.3546C22.0048 28.4204 20.9377 27.0165 20.4219 25.3827C20.2251 24.7927 20.0876 24.1845 20.0115 23.5672C19.947 22.9733 19.8282 22.3865 19.6567 21.8143C19.5402 21.4252 19.3985 21.0441 19.2324 20.6734C19.1907 20.5691 19.142 20.4717 19.1002 20.3743C19.0585 20.2769 18.9402 20.0126 18.8707 19.8456C18.8583 19.7948 18.8396 19.7458 18.815 19.6996C18.7185 19.4345 18.6531 19.159 18.6203 18.8787C18.6094 18.6655 18.6094 18.452 18.6203 18.2388C18.6203 18.0441 18.6203 17.8562 18.6203 17.6614C18.7286 16.0783 19.2664 14.5546 20.1758 13.2543C21.0852 11.9539 22.3318 10.926 23.7817 10.281C24.1911 10.0973 24.6145 9.94618 25.0477 9.82895C25.7087 9.64392 26.387 9.52737 27.0719 9.48115C27.3154 9.48115 27.5519 9.48115 27.7675 9.48115C28.3273 9.47897 28.8861 9.52783 29.437 9.6272C29.8615 9.70614 30.2781 9.82253 30.6821 9.975C32.432 10.6474 33.8715 11.9432 34.7236 13.613C35.4062 14.887 35.8761 16.2638 36.1148 17.6893C36.1635 17.9745 36.1913 18.1762 36.1983 18.2597C36.1983 18.4916 36.1774 18.7072 36.1357 18.9066C36.0807 19.398 35.9971 19.8857 35.8852 20.3673Z" fill="#A60E44"/>
<path d="M21.6883 18.8579C21.0511 19.6863 20.1855 20.3101 19.1981 20.6525C19.1563 20.5482 19.1076 20.4508 19.0659 20.3534C19.0242 20.256 18.9059 19.9918 18.8364 19.8248C18.824 19.774 18.8053 19.7249 18.7807 19.6787C18.6842 19.4136 18.6188 19.1381 18.5859 18.8579H21.6883Z" fill="#F73B8F"/>
<path d="M36.1508 18.8579C36.0932 19.3659 36.0049 19.8699 35.8865 20.3673C35.8865 20.4925 35.8239 20.6108 35.7961 20.7221C34.8198 20.3211 33.9608 19.6799 33.2988 18.8579H36.1508Z" fill="#F73B8F"/>
<path d="M31.7121 18.8579H23.0796C22.3446 20.2503 21.0976 21.3027 19.6016 21.7934C19.7731 22.3656 19.8918 22.9524 19.9563 23.5463C20.0325 24.1636 20.17 24.7718 20.3667 25.3618C20.8825 26.9956 21.9496 28.3995 23.3857 29.3337C23.4911 29.4378 23.6105 29.5268 23.7404 29.598L24.2274 29.7928C25.2217 30.2299 26.2925 30.4663 27.3785 30.4884C33.0894 30.6484 34.4667 25.9461 34.7936 23.9219V23.8802C34.9411 23.2571 35.1198 22.6419 35.3292 22.0368L35.3849 21.8699C33.7572 21.3968 32.2477 19.5674 31.7121 18.8579ZM24.0604 23.0732C23.8759 23.0732 23.699 23 23.5685 22.8695C23.4381 22.7391 23.3648 22.5621 23.3648 22.3776V21.6125C23.3648 21.4188 23.4417 21.233 23.5787 21.096C23.7157 20.9591 23.9015 20.8821 24.0952 20.8821C24.2889 20.8821 24.4747 20.9591 24.6116 21.096C24.7486 21.233 24.8256 21.4188 24.8256 21.6125V22.3776C24.8203 22.4764 24.7953 22.5731 24.7519 22.662C24.7085 22.7509 24.6477 22.8302 24.5731 22.8951C24.4985 22.96 24.4115 23.0092 24.3175 23.0398C24.2234 23.0704 24.1242 23.0818 24.0256 23.0732H24.0604ZM29.7922 27.073C29.1776 27.5998 28.3894 27.8799 27.5802 27.859C26.6411 27.8385 25.7196 27.6004 24.8882 27.1634C24.7644 27.0765 24.6773 26.9469 24.6434 26.7995C24.6096 26.6521 24.6315 26.4974 24.7049 26.3652C24.7784 26.2331 24.8981 26.1327 25.0411 26.0836C25.1841 26.0345 25.3403 26.04 25.4794 26.0991C25.4794 26.0991 27.7054 27.3026 28.9575 26.1757C29.0169 26.1174 29.0875 26.0717 29.1652 26.0416C29.2428 26.0114 29.3257 25.9975 29.4089 26.0005C29.4921 26.0036 29.5738 26.0236 29.649 26.0593C29.7242 26.095 29.7914 26.1457 29.8463 26.2082C29.9013 26.2708 29.9429 26.3438 29.9687 26.423C29.9944 26.5022 30.0037 26.5858 29.9961 26.6687C29.9884 26.7516 29.9639 26.8321 29.9241 26.9052C29.8842 26.9783 29.8299 27.0425 29.7644 27.0939L29.7922 27.073ZM31.1834 22.3429C31.1834 22.5366 31.1065 22.7224 30.9695 22.8594C30.8325 22.9963 30.6468 23.0732 30.453 23.0732C30.2593 23.0732 30.0736 22.9963 29.9366 22.8594C29.7996 22.7224 29.7227 22.5366 29.7227 22.3429V21.5777C29.7227 21.384 29.7996 21.1982 29.9366 21.0612C30.0736 20.9243 30.2593 20.8473 30.453 20.8473C30.6468 20.8473 30.8325 20.9243 30.9695 21.0612C31.1065 21.1982 31.1834 21.384 31.1834 21.5777V22.3429Z" fill="#F73B8F"/>
<path d="M36.1295 17.6407H18.6211C18.7294 16.0576 19.2672 14.5339 20.1766 13.2335C21.086 11.9332 22.3327 10.9052 23.7825 10.2603L23.3025 15.0739C23.2919 15.1558 23.2977 15.239 23.3197 15.3187C23.3417 15.3983 23.3795 15.4727 23.4307 15.5375C23.4819 15.6023 23.5455 15.6563 23.6179 15.6961C23.6903 15.7359 23.7699 15.7609 23.8521 15.7695H23.9147C24.0655 15.7685 24.2107 15.7119 24.3224 15.6105C24.4341 15.5091 24.5044 15.3701 24.5198 15.22L25.0485 9.83591C25.7095 9.65088 26.3878 9.53433 27.0727 9.48811C27.3162 9.48811 27.5527 9.48811 27.7683 9.48811C28.3281 9.48592 28.8869 9.53488 29.4378 9.63424L29.8134 15.1991C29.8257 15.3529 29.8956 15.4963 30.0091 15.6007C30.1225 15.7052 30.2713 15.763 30.4256 15.7625C30.5057 15.7581 30.5842 15.7378 30.6564 15.7028C30.7286 15.6678 30.7931 15.6187 30.8462 15.5585C30.8993 15.4983 30.9399 15.4281 30.9656 15.3521C30.9913 15.2761 31.0016 15.1957 30.996 15.1156L30.6482 9.94723C32.3981 10.6196 33.8375 11.9154 34.6896 13.5852C35.387 14.8497 35.8734 16.2196 36.1295 17.6407Z" fill="#F73B8F"/>
<path d="M38.821 18.2528C38.821 18.3329 38.8051 18.4121 38.7743 18.486C38.7434 18.5599 38.6982 18.6269 38.6413 18.6832C38.5844 18.7395 38.5168 18.7839 38.4426 18.8139C38.3684 18.8439 38.2889 18.8589 38.2089 18.858H16.5894C16.504 18.8671 16.4176 18.8582 16.3359 18.8318C16.2542 18.8053 16.179 18.7621 16.1151 18.7047C16.0512 18.6472 16.0001 18.577 15.9651 18.4986C15.9302 18.4201 15.9121 18.3352 15.9121 18.2494C15.9121 18.1635 15.9302 18.0785 15.9651 18C16.0001 17.9216 16.0512 17.8515 16.1151 17.794C16.179 17.7366 16.2542 17.6933 16.3359 17.6668C16.4176 17.6404 16.504 17.6316 16.5894 17.6407H38.2089C38.2895 17.6398 38.3695 17.6549 38.4442 17.6854C38.5189 17.7158 38.5868 17.7609 38.6438 17.8179C38.7008 17.8749 38.7459 17.9428 38.7763 18.0175C38.8068 18.0921 38.822 18.1722 38.821 18.2528Z" fill="#A60E44"/>
<path d="M25.0898 9.39755L25.048 9.80802L24.5194 15.192C24.5039 15.3421 24.4336 15.4812 24.3219 15.5826C24.2103 15.684 24.065 15.7406 23.9142 15.7416H23.8516C23.7694 15.733 23.6898 15.708 23.6174 15.6681C23.5451 15.6283 23.4814 15.5744 23.4302 15.5096C23.379 15.4448 23.3412 15.3703 23.3192 15.2907C23.2972 15.2111 23.2914 15.1279 23.302 15.046L23.782 10.2323L23.8794 9.2515C23.888 9.16933 23.9129 9.08976 23.9528 9.01739C23.9926 8.94502 24.0465 8.88129 24.1114 8.83007C24.1762 8.77886 24.2506 8.74118 24.3302 8.71918C24.4099 8.69717 24.4931 8.69128 24.575 8.70194C24.7355 8.72598 24.8798 8.81283 24.9764 8.94326C25.0729 9.0737 25.1137 9.23705 25.0898 9.39755Z" fill="#A60E44"/>
<path d="M31.0519 15.0947C31.0575 15.1748 31.0472 15.2552 31.0215 15.3312C30.9958 15.4072 30.9552 15.4774 30.9021 15.5376C30.849 15.5978 30.7845 15.6469 30.7123 15.6819C30.6401 15.7169 30.5616 15.7373 30.4815 15.7417C30.3272 15.7422 30.1785 15.6844 30.065 15.5799C29.9515 15.4754 29.8816 15.332 29.8693 15.1782L29.4937 9.61333V9.16117C29.488 9.08074 29.4983 9.00002 29.5239 8.92358C29.5496 8.84713 29.59 8.77647 29.643 8.71571C29.696 8.65495 29.7605 8.60526 29.8328 8.56949C29.905 8.53373 29.9836 8.51263 30.0641 8.50734C30.1125 8.50048 30.1617 8.50048 30.2102 8.50734H30.3215C30.4304 8.54862 30.5251 8.62041 30.5942 8.71418C30.6633 8.80796 30.7039 8.91974 30.711 9.036L30.7667 9.91935L31.0519 15.0947Z" fill="#A60E44"/>
<path d="M19.0175 24.9862C18.5536 24.9289 18.1187 24.7297 17.7724 24.4158C17.5041 24.1549 17.2912 23.8426 17.1463 23.4976C16.9777 23.0335 16.9696 22.5263 17.1235 22.0571C17.2773 21.5879 17.5842 21.1839 17.995 20.9099C18.0924 21.1395 18.1967 21.369 18.3011 21.6055C18.544 22.2794 18.7051 22.98 18.781 23.6923C18.8362 24.1276 18.9152 24.5595 19.0175 24.9862Z" fill="#F73B8F"/>
<path d="M20.429 25.4382C20.4556 25.5939 20.4202 25.7537 20.3306 25.8837C20.2409 26.0137 20.104 26.1034 19.949 26.1338C19.7731 26.1721 19.5935 26.1908 19.4134 26.1895C18.7522 26.1917 18.1029 26.0138 17.5353 25.6747C17.1814 25.4627 16.87 25.1868 16.6171 24.8609C16.3928 24.5814 16.2079 24.2724 16.0676 23.9427C15.2259 22.0158 16.5058 20.4646 17.5631 19.6786C17.7019 19.5783 17.8458 19.4854 17.9944 19.4003C18.0637 19.3608 18.1402 19.3353 18.2195 19.3254C18.2987 19.3156 18.3791 19.3215 18.4561 19.3428C18.533 19.3642 18.605 19.4005 18.6678 19.4498C18.7306 19.499 18.7831 19.5603 18.8222 19.6299C18.8467 19.6761 18.8654 19.7252 18.8778 19.776C18.9138 19.9079 18.9046 20.0481 18.8516 20.1741C18.7987 20.3002 18.7051 20.4049 18.5857 20.4716C18.3846 20.5866 18.1958 20.7217 18.0222 20.875C17.6115 21.149 17.3046 21.553 17.1507 22.0222C16.9968 22.4914 17.0049 22.9987 17.1736 23.4627C17.3184 23.8078 17.5313 24.1201 17.7996 24.3809C18.063 24.6121 18.374 24.7825 18.7106 24.8799C19.0473 24.9772 19.4012 24.9993 19.7473 24.9444C19.8897 24.9165 20.0374 24.9396 20.1645 25.0095C20.2917 25.0794 20.3902 25.1917 20.4429 25.3269L20.429 25.4382Z" fill="#A60E44"/>
<path d="M38.4801 24.4505C38.4596 24.4937 38.4363 24.5355 38.4105 24.5757C38.2217 24.8851 37.9872 25.1642 37.7149 25.4035C37.0726 25.9504 36.289 26.3049 35.4542 26.4261L35.0786 26.4887H35.002C34.8489 26.4851 34.7026 26.4242 34.5922 26.318C34.4817 26.2118 34.4151 26.068 34.4055 25.9151C34.3959 25.7622 34.444 25.6112 34.5403 25.492C34.6365 25.3729 34.774 25.2941 34.9255 25.2714C35.2498 25.2329 35.5692 25.1606 35.8785 25.0557C36.501 24.8666 37.0376 24.4654 37.3949 23.9218C37.553 23.6774 37.6582 23.4026 37.7037 23.1151C37.7492 22.8276 37.7341 22.5338 37.6593 22.2524C37.52 21.914 37.2763 21.6288 36.9637 21.4385L36.8802 21.3899C36.7011 21.2797 36.5096 21.191 36.3098 21.1256C36.2196 21.097 36.1371 21.0483 36.0684 20.9832C35.9997 20.9182 35.9467 20.8384 35.9133 20.7499C35.8714 20.6258 35.8714 20.4914 35.9133 20.3673C35.9357 20.291 35.9728 20.2199 36.0227 20.158C36.0726 20.0961 36.1341 20.0446 36.2039 20.0065C36.2737 19.9684 36.3502 19.9443 36.4293 19.9358C36.5083 19.9273 36.5883 19.9345 36.6646 19.9569C36.8485 20.0116 37.0277 20.0814 37.2002 20.1656C37.9396 20.4982 38.5191 21.1076 38.814 21.8629C38.9441 22.2933 38.9816 22.7464 38.9241 23.1924C38.8665 23.6384 38.7152 24.0672 38.4801 24.4505Z" fill="#A60E44"/>
<path d="M17.8418 25.2714C17.8418 25.2714 17.7027 25.4384 17.501 25.7166C17.0901 26.2882 16.7404 26.9014 16.4576 27.5461C16.3324 27.8382 16.4158 28.0191 16.701 28.52C17.0405 29.0027 17.2408 29.5694 17.28 30.1582C17.3193 30.747 17.196 31.3353 16.9236 31.8588C16.5243 32.662 16.4448 33.5869 16.701 34.4465C16.7724 34.6981 16.8903 34.934 17.0488 35.1421C17.1058 35.2084 17.1478 35.2863 17.1718 35.3703C17.1958 35.4544 17.2013 35.5427 17.188 35.629C17.1651 35.7735 17.094 35.9058 16.9862 36.0046C16.8732 36.0993 16.7303 36.1511 16.5828 36.1508H16.5271C16.4497 36.1463 16.374 36.1262 16.3046 36.0915C16.2353 36.0568 16.1737 36.0083 16.1237 35.949C15.9571 35.7347 15.817 35.5012 15.7063 35.2534C15.4422 34.6409 15.3148 33.9783 15.3328 33.3116C15.3508 32.6449 15.5139 31.9901 15.8107 31.3928C15.9993 31.0424 16.0838 30.6453 16.0542 30.2485C16.0247 29.8516 15.8822 29.4715 15.6437 29.1529C15.4119 28.8636 15.2614 28.5178 15.2076 28.151C15.1538 27.7842 15.1987 27.4098 15.3376 27.0661C15.6713 26.3011 16.0889 25.5755 16.5828 24.9028C16.7706 24.6454 16.9028 24.4924 16.9167 24.4784C17.0264 24.3731 17.1713 24.3124 17.3234 24.3081C17.4754 24.3038 17.6236 24.3563 17.739 24.4553C17.8545 24.5542 17.929 24.6926 17.948 24.8435C17.967 24.9944 17.9291 25.1469 17.8418 25.2714Z" fill="#A60E44"/>
<path d="M39.6203 31.365C39.9572 32.0221 40.1253 32.7527 40.1095 33.491C40.0937 34.2293 39.8945 34.9521 39.5299 35.5942C39.4614 35.707 39.3871 35.8161 39.3073 35.9211C39.2579 35.9912 39.1944 36.0502 39.1209 36.0941C39.0473 36.1381 38.9653 36.166 38.8803 36.1763C38.7952 36.1866 38.7089 36.1789 38.627 36.1537C38.5451 36.1285 38.4694 36.0865 38.4048 36.0302C38.3402 35.9739 38.2881 35.9047 38.2519 35.827C38.2158 35.7493 38.1963 35.6649 38.1948 35.5792C38.1934 35.4935 38.2099 35.4084 38.2433 35.3296C38.2768 35.2507 38.3265 35.1798 38.3891 35.1213C38.4578 35.0245 38.5183 34.9221 38.57 34.8152C38.7862 34.3504 38.893 33.8422 38.8822 33.3297C38.8713 32.8172 38.7431 32.314 38.5073 31.8588C38.236 31.3347 38.1139 30.7461 38.1544 30.1573C38.1948 29.5684 38.3964 29.002 38.7369 28.52C39.0151 28.0191 39.0986 27.8243 38.9734 27.5461C38.6331 26.7931 38.2008 26.0851 37.6865 25.4384L37.5822 25.3063C37.5283 25.2478 37.4864 25.1792 37.459 25.1046C37.4316 25.03 37.4191 24.9507 37.4224 24.8712C37.4256 24.7918 37.4445 24.7137 37.4778 24.6416C37.5112 24.5694 37.5585 24.5045 37.617 24.4506C37.6754 24.3967 37.7439 24.3549 37.8186 24.3275C37.8932 24.3 37.9725 24.2876 38.052 24.2908C38.1314 24.294 38.2095 24.3129 38.2816 24.3463C38.3538 24.3797 38.4187 24.4269 38.4726 24.4854H38.5073C39.1492 25.2719 39.6805 26.1425 40.0864 27.073C40.222 27.4169 40.2658 27.7902 40.2133 28.1561C40.1609 28.522 40.014 28.8679 39.7873 29.1599C39.5557 29.4749 39.4172 29.8486 39.3877 30.2385C39.3582 30.6284 39.4388 31.0187 39.6203 31.365Z" fill="#A60E44"/>
<path d="M29.7149 35.1768C29.324 35.511 28.8624 35.7524 28.3648 35.8825C27.8672 36.0126 27.3466 36.0281 26.8421 35.928C26.5073 35.9075 26.1807 35.8156 25.8844 35.6584C25.588 35.5012 25.3287 35.2825 25.1239 35.0168C24.2962 33.9595 24.1709 32.2343 24.1988 31.1353C25.2166 31.5168 26.291 31.7261 27.3777 31.7544H27.6768C28.704 31.7641 29.7252 31.5971 30.6957 31.2605C30.7723 32.6169 30.6192 34.2447 29.7149 35.1768Z" fill="#F73B8F"/>
<path d="M31.9274 31.5735C31.9421 31.996 31.9282 32.419 31.8857 32.8396C31.8356 34.0176 31.3727 35.1405 30.5779 36.0115C30.1635 36.4017 29.6744 36.7041 29.14 36.9001C28.6056 37.0962 28.037 37.1819 27.4686 37.1523C27.2251 37.1523 26.9747 37.1523 26.7243 37.1523C26.2238 37.1131 25.7372 36.969 25.2962 36.7293C24.8552 36.4896 24.4695 36.1597 24.1644 35.7611C23.5504 34.9077 23.1736 33.9069 23.0723 32.8605C23.0141 32.4525 22.9816 32.0413 22.9749 31.6292C22.9563 31.2724 22.9563 30.9148 22.9749 30.558C22.9749 30.1545 23.0306 29.8624 23.0375 29.8624C23.0485 29.763 23.0877 29.6689 23.1506 29.5912C23.2135 29.5135 23.2974 29.4555 23.3923 29.4241C23.4966 29.3824 23.6218 29.7928 23.7331 29.8067C23.9057 29.8036 24.0781 29.8176 24.2479 29.8484C24.2548 29.9108 24.2548 29.9738 24.2479 30.0363C24.2054 30.4035 24.1822 30.7726 24.1783 31.1423C24.1783 32.2622 24.2757 33.9665 25.1035 35.0238C25.3083 35.2895 25.5676 35.5082 25.8639 35.6654C26.1603 35.8226 26.4868 35.9145 26.8216 35.935C27.3261 36.0351 27.8468 36.0195 28.3444 35.8894C28.842 35.7593 29.3036 35.518 29.6945 35.1838C30.5988 34.2795 30.7518 32.6518 30.6753 31.2675C30.6753 31.0588 30.6753 30.8501 30.6266 30.6554C30.6184 30.5759 30.6259 30.4955 30.6487 30.419C30.6715 30.3424 30.7092 30.2711 30.7596 30.2091C30.81 30.147 30.8721 30.0956 30.9424 30.0576C31.0126 30.0196 31.0897 29.9958 31.1692 29.9876C31.2487 29.9794 31.329 29.9869 31.4055 30.0097C31.4821 30.0325 31.5534 30.0702 31.6154 30.1206C31.6775 30.171 31.7289 30.233 31.7669 30.3033C31.805 30.3736 31.8287 30.4506 31.837 30.5301C31.837 30.5997 31.837 30.6693 31.837 30.7388C31.9065 31.0032 31.9204 31.2953 31.9274 31.5735Z" fill="#A60E44"/>
<path d="M43.7119 45.2633L43.6284 45.778H11.2548V45.1798C11.23 43.0812 11.7152 41.0079 12.6688 39.1382C13.6224 37.2686 15.0158 35.6586 16.7292 34.4465C16.931 34.3005 17.1397 34.1614 17.3553 34.0222C17.993 33.6157 18.6551 33.2487 19.3378 32.9232L19.9638 32.638C20.9463 32.2098 21.9632 31.8655 23.0036 31.6085C23.1686 31.5647 23.3358 31.5299 23.5045 31.5041C23.6587 31.4882 23.8132 31.5314 23.9368 31.6251C24.0604 31.7187 24.1439 31.8557 24.1704 32.0084C24.1969 32.1612 24.1644 32.3184 24.0795 32.4481C23.9947 32.5779 23.8637 32.6706 23.7131 32.7075C23.7131 32.7075 23.4766 32.7493 23.101 32.8397C22.2036 33.0793 21.3248 33.3838 20.4716 33.7509C20.0821 33.9248 19.6717 34.1127 19.2543 34.3353C18.8176 34.559 18.3927 34.8051 17.9813 35.0726C17.717 35.2465 17.4596 35.4204 17.2162 35.6082C16.9752 35.7671 16.743 35.939 16.5206 36.123C15.2594 37.1404 14.2397 38.425 13.5348 39.884C12.8299 41.3431 12.4575 42.9404 12.4443 44.5607H42.5571C42.5797 43.0932 42.2681 41.6398 41.6459 40.3106C40.4981 37.8203 38.3139 35.7404 35.2394 34.2031C34.8498 34.0014 34.4394 33.8136 34.022 33.6327C33.3264 33.3475 32.6308 33.0762 31.8935 32.8397L31.4135 32.6867C31.2595 32.6397 31.1304 32.5333 31.0548 32.3911C30.9791 32.2489 30.963 32.0825 31.0101 31.9284C31.0571 31.7744 31.1634 31.6454 31.3056 31.5697C31.4478 31.494 31.6142 31.478 31.7683 31.525L31.9352 31.5737C32.9255 31.879 33.8965 32.2437 34.8429 32.6658C34.89 32.6795 34.9346 32.7006 34.975 32.7284C36.2481 33.2915 37.4563 33.9912 38.5783 34.8152C38.9261 35.0726 39.2739 35.3369 39.5382 35.5943C40.9146 36.7715 42.0223 38.2304 42.7867 39.8723C43.584 41.5503 43.9041 43.4154 43.7119 45.2633Z" fill="#A60E44"/>
<path d="M42.5572 44.5605H35.2324V34.2029C38.307 35.7402 40.4912 37.8201 41.639 40.3103C42.2635 41.639 42.5775 43.0925 42.5572 44.5605Z" fill="#F73B8F"/>
<path d="M38.5072 31.8589C38.7429 32.3141 38.8712 32.8173 38.882 33.3298C38.8929 33.8423 38.7861 34.3505 38.5698 34.8153C37.4478 33.9913 36.2396 33.2915 34.9665 32.7284C34.9261 32.7006 34.8815 32.6795 34.8344 32.6658C33.888 32.2437 32.917 31.879 31.9267 31.5737C31.9267 31.2955 31.9267 31.0033 31.8711 30.7042C33.5337 29.7525 34.798 28.2339 35.4326 26.4263C36.2613 26.3138 37.042 25.9717 37.6864 25.4385C38.2007 26.0964 38.6307 26.8162 38.9663 27.5809C39.0915 27.8731 39.008 28.0539 38.7298 28.5548C38.397 29.0338 38.2005 29.5941 38.1613 30.176C38.1221 30.758 38.2416 31.3396 38.5072 31.8589Z" fill="#F73B8F"/>
<path d="M35.2325 33.229V45.1656C35.2417 45.251 35.2327 45.3374 35.2063 45.4191C35.1799 45.5008 35.1366 45.5761 35.0792 45.64C35.0218 45.7039 34.9515 45.755 34.8731 45.7899C34.7947 45.8249 34.7097 45.8429 34.6239 45.8429C34.538 45.8429 34.453 45.8249 34.3746 45.7899C34.2962 45.755 34.226 45.7039 34.1686 45.64C34.1111 45.5761 34.0678 45.5008 34.0414 45.4191C34.015 45.3374 34.0061 45.251 34.0152 45.1656V33.229C34.0152 33.1489 34.0311 33.0697 34.0619 32.9958C34.0928 32.922 34.138 32.855 34.1949 32.7987C34.2518 32.7424 34.3194 32.6979 34.3936 32.6679C34.4678 32.6379 34.5473 32.6229 34.6273 32.6238C34.6991 32.6228 34.7702 32.6371 34.836 32.6656C34.8831 32.6793 34.9277 32.7004 34.9682 32.7282C35.0497 32.7838 35.1165 32.8585 35.1625 32.9458C35.2086 33.0331 35.2326 33.1303 35.2325 33.229Z" fill="#A60E44"/>
<path d="M19.2264 34.3352V44.5606H12.4512C12.4643 42.9403 12.8368 41.343 13.5417 39.8839C14.2465 38.4249 15.2663 37.1403 16.5274 36.1229H16.5831C16.7306 36.1232 16.8735 36.0715 16.9865 35.9768C17.0943 35.878 17.1654 35.7456 17.1883 35.6012C17.4317 35.4134 17.6891 35.2394 17.9534 35.0655C18.3649 34.8004 18.7898 34.5566 19.2264 34.3352Z" fill="#F73B8F"/>
<path d="M22.9748 31.6083C21.9343 31.8653 20.9174 32.2097 19.935 32.6378C19.9005 32.6311 19.8651 32.6311 19.8306 32.6378C19.725 32.6372 19.6211 32.6645 19.5294 32.717C19.4378 32.7696 19.3617 32.8455 19.3089 32.937C18.6262 33.2624 17.9642 33.6294 17.3264 34.036C17.1108 34.1751 16.9021 34.3142 16.7004 34.4603C16.4441 33.6007 16.5237 32.6759 16.923 31.8727C17.1953 31.3491 17.3186 30.7608 17.2794 30.172C17.2401 29.5832 17.0398 29.0164 16.7004 28.5337C16.4152 28.0329 16.3317 27.8382 16.4569 27.5599C16.7397 26.9152 17.0894 26.3021 17.5003 25.7305C18.068 26.0695 18.7173 26.2475 19.3785 26.2452C20.041 28.0502 21.3064 29.5711 22.9609 30.551C22.9473 30.9034 22.952 31.2564 22.9748 31.6083Z" fill="#F73B8F"/>
<path d="M20.4434 33.2291V45.1658C20.4526 45.2512 20.4437 45.3375 20.4172 45.4192C20.3908 45.501 20.3475 45.5762 20.2901 45.6401C20.2327 45.704 20.1625 45.7551 20.084 45.7901C20.0056 45.825 19.9207 45.843 19.8348 45.843C19.7489 45.843 19.664 45.825 19.5855 45.7901C19.5071 45.7551 19.4369 45.704 19.3795 45.6401C19.3221 45.5762 19.2788 45.501 19.2523 45.4192C19.2259 45.3375 19.217 45.2512 19.2261 45.1658V33.2291C19.2248 33.1213 19.2538 33.0153 19.3096 32.9231C19.3624 32.8316 19.4385 32.7557 19.5301 32.7032C19.6218 32.6506 19.7257 32.6233 19.8313 32.624C19.8658 32.6172 19.9012 32.6172 19.9357 32.624C20.08 32.6445 20.2117 32.7177 20.3055 32.8294C20.3992 32.9411 20.4483 33.0834 20.4434 33.2291Z" fill="#A60E44"/>
<path d="M34.0147 33.6326V39.6565H20.4434V33.7856C21.2966 33.4185 22.1753 33.1139 23.0728 32.8743C23.174 33.9207 23.5508 34.9217 24.1649 35.775C24.47 36.1736 24.8556 36.5035 25.2966 36.7432C25.7377 36.9829 26.2243 37.127 26.7247 37.1662C26.9751 37.1662 27.2255 37.1662 27.469 37.1662C28.0374 37.1959 28.606 37.1101 29.1404 36.9141C29.6748 36.718 30.164 36.4157 30.5784 36.0254C31.3731 35.1544 31.8361 34.0316 31.8861 32.8535C32.6304 33.09 33.3399 33.3474 34.0147 33.6326Z" fill="#F73B8F"/>
<path d="M34.0205 40.8877H20.4492V44.5675H34.0205V40.8877Z" fill="#F73B8F"/>
<path d="M35.2316 40.2686C35.2326 40.3487 35.2176 40.4282 35.1876 40.5024C35.1576 40.5766 35.1132 40.6442 35.0569 40.7011C35.0006 40.758 34.9335 40.8032 34.8597 40.8341C34.7858 40.8649 34.7065 40.8808 34.6265 40.8808H19.8309C19.6685 40.8808 19.5128 40.8163 19.398 40.7015C19.2832 40.5867 19.2188 40.431 19.2188 40.2686C19.2188 40.1063 19.2832 39.9506 19.398 39.8358C19.5128 39.721 19.6685 39.6565 19.8309 39.6565H34.6265C34.7876 39.6583 34.9415 39.7237 35.0548 39.8383C35.1681 39.9529 35.2316 40.1075 35.2316 40.2686Z" fill="#A60E44"/>
<path d="M29.7581 27.0731C29.1435 27.5999 28.3553 27.88 27.546 27.8591C26.607 27.8386 25.6855 27.6005 24.854 27.1635C24.7303 27.0766 24.6431 26.947 24.6093 26.7996C24.5754 26.6522 24.5974 26.4975 24.6708 26.3654C24.7442 26.2332 24.864 26.1328 25.007 26.0837C25.15 26.0346 25.3061 26.0401 25.4453 26.0992C25.4453 26.0992 27.6712 27.3027 28.9233 26.1758C28.9827 26.1175 29.0534 26.0718 29.131 26.0417C29.2086 26.0116 29.2916 25.9976 29.3748 26.0007C29.458 26.0037 29.5397 26.0237 29.6149 26.0594C29.6901 26.0951 29.7572 26.1458 29.8122 26.2084C29.8672 26.2709 29.9088 26.3439 29.9345 26.4231C29.9603 26.5023 29.9696 26.5859 29.9619 26.6688C29.9542 26.7517 29.9297 26.8322 29.8899 26.9053C29.8501 26.9784 29.7957 27.0426 29.7302 27.094L29.7581 27.0731Z" fill="#A60E44"/>
<path d="M23.2248 18.5866C23.1888 18.6796 23.147 18.7702 23.0996 18.8579C22.6584 19.6274 22.0682 20.3012 21.3635 20.8399C20.6588 21.3785 19.8538 21.7713 18.9955 21.9951C18.9494 22.0023 18.9025 22.0023 18.8564 21.9951C18.7375 21.9959 18.621 21.9612 18.5219 21.8956C18.4228 21.8299 18.3455 21.7362 18.2999 21.6264C18.2638 21.5449 18.2461 21.4563 18.2482 21.3672C18.2503 21.278 18.2721 21.1905 18.3119 21.1107C18.3518 21.031 18.4088 20.961 18.4789 20.9058C18.549 20.8507 18.6303 20.8117 18.7172 20.7916C18.7172 20.7916 18.919 20.7429 19.2111 20.6386C20.1985 20.2962 21.0642 19.6723 21.7014 18.844C21.8583 18.6283 21.9891 18.3948 22.0909 18.1484C22.1513 17.9983 22.2685 17.8783 22.4171 17.8144C22.5657 17.7505 22.7335 17.7481 22.8839 17.8075C22.9577 17.836 23.0251 17.8787 23.0823 17.9334C23.1394 17.988 23.1852 18.0535 23.2169 18.1259C23.2486 18.1984 23.2656 18.2764 23.2669 18.3555C23.2683 18.4345 23.254 18.5131 23.2248 18.5866Z" fill="#A60E44"/>
<path d="M37.3739 23.929C37.0165 24.4726 36.4799 24.8737 35.8574 25.0628C35.927 24.7706 35.9896 24.4716 36.0383 24.1586C36.1844 23.5395 36.3583 23.0038 36.5461 22.4403C36.6087 22.2595 36.6643 22.0787 36.7269 21.8909C36.7942 21.8384 36.8495 21.7722 36.8891 21.6966C36.9287 21.621 36.9517 21.5378 36.9565 21.4526C37.2691 21.6429 37.5128 21.928 37.6521 22.2664C37.7239 22.5477 37.7362 22.8408 37.6883 23.127C37.6404 23.4133 37.5333 23.6864 37.3739 23.929Z" fill="#F73B8F"/>
<path d="M36.9919 21.3691C36.9957 21.3945 36.9957 21.4202 36.9919 21.4456C36.9871 21.5308 36.9641 21.614 36.9245 21.6896C36.8849 21.7651 36.8296 21.8314 36.7623 21.8838C36.6628 21.9559 36.5442 21.997 36.4215 22.0021H36.2893C36.0132 22.0019 35.7388 21.9597 35.4754 21.8769C33.7921 21.383 32.2826 19.5536 31.747 18.844L31.5592 18.5867C31.4676 18.4536 31.4322 18.2897 31.4609 18.1308C31.4896 17.9718 31.5799 17.8307 31.7122 17.738C31.8135 17.6652 31.9352 17.6262 32.06 17.6267C32.1588 17.626 32.2563 17.6497 32.3437 17.6958C32.4311 17.742 32.5057 17.8091 32.5609 17.8911C32.7996 18.2233 33.0575 18.5415 33.333 18.844C33.9949 19.666 34.854 20.3072 35.8302 20.7082H35.9415C36.0555 20.7354 36.1722 20.7494 36.2893 20.75H36.3589C36.4894 20.7448 36.6182 20.781 36.727 20.8535C36.8357 20.926 36.9186 21.0309 36.964 21.1534C36.9895 21.2223 36.999 21.296 36.9919 21.3691Z" fill="#A60E44"/>
</g>
<defs>
<clipPath id="clip0_522_1552">
<rect width="54" height="54" fill="white" transform="translate(0.5)"/>
</clipPath>
</defs>
</svg>
