<svg width="54" height="54" viewBox="0 0 54 54" fill="none" xmlns="http://www.w3.org/2000/svg">
<g clip-path="url(#clip0_522_1672)">
<path d="M27.0033 53.6593C41.7249 53.6593 53.659 41.7251 53.659 27.0036C53.659 12.2821 41.7249 0.3479 27.0033 0.3479C12.2818 0.3479 0.347656 12.2821 0.347656 27.0036C0.347656 41.7251 12.2818 53.6593 27.0033 53.6593Z" fill="#B9E8FF" stroke="#88DBFF" stroke-miterlimit="10"/>
<path d="M26.711 24.1723C26.6109 24.2666 26.4798 24.321 26.3423 24.3254C26.2025 24.3227 26.0686 24.2682 25.9667 24.1723L22.3287 20.5274L21.5913 19.8318L18.1133 16.3537C18.0168 16.2539 17.9629 16.1204 17.9629 15.9815C17.9629 15.8427 18.0168 15.7092 18.1133 15.6094C18.2111 15.5117 18.3437 15.4568 18.482 15.4568C18.6202 15.4568 18.7528 15.5117 18.8506 15.6094L26.6971 23.4558C26.7905 23.5509 26.8439 23.6781 26.8465 23.8113C26.8491 23.9445 26.8006 24.0737 26.711 24.1723Z" fill="#134E95"/>
<path d="M26.3914 16.451L23.0456 19.7899L18.6633 24.1723C18.5647 24.2689 18.4326 24.3237 18.2946 24.3253C18.1585 24.3241 18.0285 24.2691 17.9329 24.1723C17.8836 24.1243 17.8445 24.067 17.8178 24.0036C17.7911 23.9403 17.7773 23.8723 17.7773 23.8036C17.7773 23.7349 17.7911 23.6668 17.8178 23.6035C17.8445 23.5402 17.8836 23.4829 17.9329 23.4349L21.5709 19.7969L22.3152 19.0595L25.6541 15.7137C25.7021 15.6644 25.7594 15.6253 25.8227 15.5986C25.886 15.5719 25.9541 15.5581 26.0228 15.5581C26.0915 15.5581 26.1595 15.5719 26.2228 15.5986C26.2862 15.6253 26.3435 15.6644 26.3914 15.7137C26.4891 15.8115 26.544 15.9441 26.544 16.0824C26.544 16.2206 26.4891 16.3531 26.3914 16.451Z" fill="#134E95"/>
<path d="M31.1695 29.3965C31.1677 29.5343 31.1122 29.6659 31.0147 29.7634C30.9172 29.8608 30.7856 29.9164 30.6478 29.9182H18.3147C18.1769 29.9164 18.0452 29.8608 17.9478 29.7634C17.8503 29.6659 17.7948 29.5343 17.793 29.3965C17.793 29.2581 17.8479 29.1254 17.9458 29.0275C18.0436 28.9297 18.1763 28.8748 18.3147 28.8748H30.6478C30.7862 28.8748 30.9189 28.9297 31.0167 29.0275C31.1145 29.1254 31.1695 29.2581 31.1695 29.3965Z" fill="#134E95"/>
<path d="M36.6726 25.1741C36.6727 25.3131 36.6179 25.4466 36.5203 25.5455C36.4226 25.6445 36.2899 25.7009 36.1509 25.7028H28.9514C28.8124 25.7009 28.6797 25.6445 28.5821 25.5455C28.4844 25.4466 28.4297 25.3131 28.4297 25.1741C28.4315 25.0369 28.4873 24.9061 28.5849 24.8097C28.6826 24.7134 28.8142 24.6593 28.9514 24.6594H36.1301C36.1997 24.6566 36.2693 24.6678 36.3345 24.6923C36.3998 24.7168 36.4595 24.7542 36.51 24.8022C36.5606 24.8502 36.6011 24.9078 36.629 24.9717C36.6569 25.0355 36.6718 25.1044 36.6726 25.1741Z" fill="#134E95"/>
<path d="M36.4918 20.9588C36.4918 21.0279 36.4781 21.0963 36.4514 21.16C36.4248 21.2238 36.3857 21.2816 36.3365 21.3301C36.2873 21.3786 36.229 21.417 36.1649 21.4428C36.1008 21.4686 36.0322 21.4814 35.9631 21.4805H28.9514C28.813 21.4805 28.6803 21.4255 28.5825 21.3276C28.4847 21.2298 28.4297 21.0971 28.4297 20.9588C28.4297 20.8204 28.4847 20.6877 28.5825 20.5898C28.6803 20.492 28.813 20.4371 28.9514 20.4371H35.9631C36.0322 20.4361 36.1008 20.449 36.1649 20.4748C36.229 20.5006 36.2873 20.5388 36.3365 20.5874C36.3857 20.6359 36.4248 20.6937 36.4514 20.7574C36.4781 20.8212 36.4918 20.8897 36.4918 20.9588Z" fill="#134E95"/>
<path d="M40.3043 31.5945C40.3043 31.6636 40.2905 31.732 40.2639 31.7958C40.2372 31.8595 40.1982 31.9173 40.149 31.9659C40.0998 32.0144 40.0415 32.0527 39.9774 32.0785C39.9133 32.1043 39.8447 32.1171 39.7756 32.1162H35.2194C35.1566 32.1162 35.0965 32.1411 35.0521 32.1855C35.0078 32.2298 34.9829 32.29 34.9829 32.3527V34.8291C34.981 35.1679 34.8456 35.4925 34.606 35.7321C34.3663 35.9717 34.0418 36.1071 33.7029 36.1089H27.4425C27.4118 36.108 27.3812 36.1133 27.3525 36.1244C27.3238 36.1355 27.2977 36.1523 27.2756 36.1737C27.2536 36.1951 27.2361 36.2207 27.2241 36.2491C27.2121 36.2774 27.206 36.3078 27.206 36.3385V38.4949C27.2069 38.6627 27.1746 38.8289 27.1111 38.9842C27.0475 39.1394 26.9539 39.2806 26.8356 39.3995C26.7173 39.5184 26.5767 39.6128 26.4218 39.6772C26.2669 39.7417 26.1008 39.7748 25.933 39.7748H20.2916C20.2301 39.7748 20.171 39.7988 20.1268 39.8416C20.0827 39.8845 20.0569 39.9429 20.0551 40.0044V42.5572C20.0551 42.6254 20.0416 42.6929 20.0153 42.7558C19.989 42.8188 19.9505 42.8758 19.9019 42.9237C19.8534 42.9716 19.7958 43.0094 19.7325 43.0349C19.6693 43.0603 19.6016 43.0729 19.5334 43.072C19.3963 43.072 19.2646 43.018 19.167 42.9217C19.0693 42.8253 19.0135 42.6944 19.0117 42.5572V40.0044C19.0136 39.6662 19.1492 39.3424 19.3891 39.1038C19.6289 38.8653 19.9534 38.7314 20.2916 38.7314H25.933C25.9945 38.7296 26.0529 38.7039 26.0958 38.6597C26.1386 38.6156 26.1626 38.5565 26.1626 38.4949V36.3385C26.1626 36.1708 26.1957 36.0047 26.2601 35.8498C26.3245 35.6949 26.4189 35.5542 26.5379 35.4359C26.6568 35.3176 26.798 35.224 26.9532 35.1605C27.1085 35.0969 27.2747 35.0646 27.4425 35.0655H33.7029C33.7657 35.0655 33.8258 35.0407 33.8702 34.9963C33.9145 34.952 33.9395 34.8918 33.9395 34.8291V32.3527C33.9413 32.0138 34.0767 31.6893 34.3164 31.4497C34.556 31.21 34.8805 31.0746 35.2194 31.0728H39.7756C39.9146 31.0727 40.048 31.1275 40.147 31.2252C40.2459 31.3228 40.3024 31.4555 40.3043 31.5945Z" fill="#134E95"/>
<path d="M39.2672 10.9211H14.7401C14.352 10.923 13.9805 11.0785 13.7067 11.3535C13.433 11.6286 13.2793 12.0008 13.2793 12.3889V41.6044C13.2793 41.9918 13.4332 42.3634 13.7072 42.6373C13.9811 42.9113 14.3527 43.0651 14.7401 43.0651H39.2672C39.6546 43.0651 40.0262 42.9113 40.3001 42.6373C40.5741 42.3634 40.728 41.9918 40.728 41.6044V12.3889C40.728 12.0008 40.5743 11.6286 40.3005 11.3535C40.0268 11.0785 39.6553 10.923 39.2672 10.9211ZM39.6846 41.6113C39.6846 41.722 39.6406 41.8282 39.5623 41.9065C39.484 41.9848 39.3779 42.0287 39.2672 42.0287H14.7401C14.6294 42.0287 14.5232 41.9848 14.445 41.9065C14.3667 41.8282 14.3227 41.722 14.3227 41.6113V12.3958C14.3227 12.2845 14.3664 12.1776 14.4445 12.0982C14.5226 12.0188 14.6287 11.9733 14.7401 11.9715H39.2672C39.3785 11.9733 39.4847 12.0188 39.5628 12.0982C39.6408 12.1776 39.6846 12.2845 39.6846 12.3958V41.6113Z" fill="#134E95"/>
<path d="M39.6853 32.1162V41.6113C39.6853 41.722 39.6414 41.8282 39.5631 41.9064C39.4848 41.9847 39.3787 42.0286 39.268 42.0286H20.0762V40.0045C20.078 39.9429 20.1037 39.8845 20.1479 39.8417C20.192 39.7988 20.2511 39.7748 20.3127 39.7749H25.9541C26.1218 39.7749 26.2879 39.7417 26.4428 39.6773C26.5977 39.6129 26.7383 39.5185 26.8566 39.3995C26.9749 39.2806 27.0686 39.1395 27.1321 38.9842C27.1957 38.829 27.2279 38.6627 27.227 38.495V36.3386C27.227 36.3079 27.2332 36.2774 27.2451 36.2491C27.2571 36.2208 27.2746 36.1952 27.2967 36.1738C27.3187 36.1524 27.3449 36.1356 27.3735 36.1244C27.4022 36.1133 27.4328 36.1081 27.4635 36.109H33.724C34.0629 36.1072 34.3874 35.9718 34.627 35.7321C34.8667 35.4925 35.0021 35.168 35.0039 34.8291V32.3528C35.0039 32.2901 35.0288 32.2299 35.0732 32.1855C35.1175 32.1411 35.1777 32.1162 35.2404 32.1162H39.6853Z" fill="#50C5FF"/>
<path d="M39.2667 11.9644H14.7396C14.6283 11.9662 14.5222 12.0117 14.4441 12.0911C14.366 12.1705 14.3223 12.2774 14.3223 12.3887V41.6042C14.3223 41.7149 14.3662 41.8211 14.4445 41.8994C14.5228 41.9776 14.6289 42.0216 14.7396 42.0216H19.0315V39.9974C19.0334 39.6591 19.169 39.3353 19.4089 39.0968C19.6487 38.8583 19.9732 38.7244 20.3114 38.7244H25.9528C26.0143 38.7226 26.0727 38.6969 26.1156 38.6527C26.1584 38.6086 26.1824 38.5494 26.1824 38.4879V36.3315C26.1824 36.1638 26.2155 35.9977 26.2799 35.8428C26.3443 35.6879 26.4387 35.5472 26.5577 35.4289C26.6766 35.3106 26.8178 35.217 26.973 35.1535C27.1283 35.0899 27.2945 35.0576 27.4623 35.0585H33.7228C33.7855 35.0585 33.8456 35.0337 33.89 34.9893C33.9343 34.945 33.9593 34.8848 33.9593 34.822V32.3457C33.9611 32.0068 34.0965 31.6823 34.3362 31.4427C34.5758 31.203 34.9003 31.0676 35.2392 31.0657H39.7119V12.3817C39.7111 12.3248 39.6988 12.2687 39.6757 12.2166C39.6527 12.1645 39.6194 12.1175 39.5779 12.0786C39.5363 12.0396 39.4874 12.0095 39.4339 11.9899C39.3805 11.9702 39.3236 11.9616 39.2667 11.9644ZM28.9509 20.4369H35.9626C36.0317 20.436 36.1003 20.4488 36.1644 20.4746C36.2285 20.5004 36.2868 20.5387 36.336 20.5872C36.3852 20.6358 36.4243 20.6935 36.4509 20.7573C36.4776 20.8211 36.4913 20.8895 36.4913 20.9586C36.4913 21.0277 36.4776 21.0961 36.4509 21.1599C36.4243 21.2236 36.3852 21.2814 36.336 21.33C36.2868 21.3785 36.2285 21.4168 36.1644 21.4426C36.1003 21.4684 36.0317 21.4813 35.9626 21.4803H28.9509C28.8125 21.4803 28.6798 21.4253 28.582 21.3275C28.4842 21.2296 28.4292 21.097 28.4292 20.9586C28.4292 20.8203 28.4842 20.6875 28.582 20.5897C28.6798 20.4918 28.8125 20.4369 28.9509 20.4369ZM17.9533 23.4349L21.5914 19.7969L18.1133 16.3189C18.0169 16.219 17.9629 16.0856 17.9629 15.9467C17.9629 15.8079 18.0169 15.6745 18.1133 15.5746C18.2112 15.4769 18.3438 15.422 18.482 15.422C18.6203 15.422 18.7529 15.4769 18.8507 15.5746L22.3287 19.0527L25.6676 15.7068C25.7156 15.6575 25.7729 15.6184 25.8362 15.5917C25.8996 15.565 25.9676 15.5513 26.0363 15.5513C26.105 15.5513 26.173 15.565 26.2364 15.5917C26.2997 15.6184 26.357 15.6575 26.405 15.7068C26.5027 15.8046 26.5575 15.9372 26.5575 16.0754C26.5575 16.2137 26.5027 16.3463 26.405 16.4441L23.0591 19.783L26.7041 23.428C26.8018 23.5258 26.8567 23.6584 26.8567 23.7967C26.8567 23.9349 26.8018 24.0675 26.7041 24.1654C26.604 24.2597 26.4729 24.3141 26.3354 24.3184C26.1955 24.3158 26.0617 24.2612 25.9598 24.1654L22.3218 20.5204L18.6768 24.1654C18.5782 24.262 18.4461 24.3168 18.3081 24.3184C18.172 24.3172 18.042 24.2622 17.9464 24.1654C17.8987 24.1171 17.861 24.0598 17.8355 23.9969C17.81 23.934 17.7972 23.8666 17.7979 23.7987C17.7985 23.7308 17.8126 23.6637 17.8393 23.6013C17.8659 23.5389 17.9047 23.4823 17.9533 23.4349ZM30.6482 29.9181H18.3151C18.1773 29.9163 18.0456 29.8607 17.9481 29.7633C17.8507 29.6658 17.7952 29.5342 17.7934 29.3963C17.7934 29.258 17.8483 29.1252 17.9462 29.0274C18.044 28.9296 18.1767 28.8746 18.3151 28.8746H30.6482C30.7865 28.8746 30.9192 28.9296 31.0171 29.0274C31.1149 29.1252 31.1699 29.258 31.1699 29.3963C31.1681 29.5342 31.1125 29.6658 31.0151 29.7633C30.9176 29.8607 30.786 29.9163 30.6482 29.9181ZM36.1504 25.7026H28.9509C28.8119 25.7008 28.6792 25.6443 28.5816 25.5454C28.4839 25.4464 28.4292 25.313 28.4292 25.174C28.431 25.0368 28.4868 24.9059 28.5844 24.8096C28.6821 24.7133 28.8137 24.6592 28.9509 24.6592H36.1296C36.2667 24.6592 36.3984 24.7133 36.496 24.8096C36.5937 24.9059 36.6494 25.0368 36.6513 25.174C36.6513 25.313 36.5965 25.4464 36.4989 25.5454C36.4012 25.6443 36.2686 25.7008 36.1296 25.7026H36.1504Z" fill="#50C5FF"/>
</g>
<defs>
<clipPath id="clip0_522_1672">
<rect width="54" height="54" fill="white"/>
</clipPath>
</defs>
</svg>
