<svg width="54" height="54" viewBox="0 0 54 54" fill="none" xmlns="http://www.w3.org/2000/svg">
<g clip-path="url(#clip0_518_457)">
<path d="M27.0033 53.6593C41.7249 53.6593 53.659 41.7251 53.659 27.0036C53.659 12.2821 41.7249 0.3479 27.0033 0.3479C12.2818 0.3479 0.347656 12.2821 0.347656 27.0036C0.347656 41.7251 12.2818 53.6593 27.0033 53.6593Z" fill="#C7EBC9" stroke="#9BDA9E" stroke-miterlimit="10"/>
<path d="M32.0123 31.6014C32.0517 32.4387 31.816 33.2659 31.3413 33.9567C30.8665 34.6475 30.1787 35.1639 29.3829 35.4272C28.712 35.6589 28.0058 35.7719 27.2961 35.7611C27.22 35.7504 27.1427 35.7504 27.0666 35.7611C27.0251 35.7542 26.9828 35.7542 26.9414 35.7611C26.1649 35.7131 25.4036 35.5245 24.6945 35.2046C23.4801 34.597 22.5015 33.6039 21.9121 32.3805L26.6144 27.6782L27.004 27.7895C29.9881 28.6172 31.8315 29.2572 32.0123 31.6014Z" fill="#67C16B"/>
<path d="M44.5681 26.9966C44.5636 30.4515 43.5399 33.8282 41.6252 36.704C39.7104 39.5798 36.9898 41.8268 33.8039 43.1635C30.6181 44.5002 27.1087 44.8672 23.7152 44.2186C20.3217 43.5701 17.1949 41.9348 14.7266 39.5175L20.1245 34.1196C20.9525 35.5438 22.1948 36.6817 23.686 37.3819C24.3742 37.7058 25.1013 37.9395 25.8493 38.0775V39.7678C25.8493 40.0907 25.9776 40.4004 26.2059 40.6287C26.4342 40.857 26.7438 40.9851 27.0666 40.9851C27.3895 40.9851 27.6991 40.857 27.9274 40.6287C28.1557 40.4004 28.2839 40.0907 28.2839 39.7678V38.1609C28.9391 38.0919 29.5836 37.9449 30.2038 37.7228C31.5042 37.2813 32.6233 36.4245 33.3888 35.2844C34.1542 34.1443 34.5237 32.7842 34.4401 31.4136C34.1549 27.6851 31.2472 26.4887 28.5761 25.6957L32.1863 22.0855C32.4619 22.1595 32.7547 22.1349 33.0141 22.0159C33.2823 21.9018 33.5003 21.6949 33.6281 21.4329C33.7559 21.1709 33.7849 20.8715 33.7097 20.5899L39.5806 14.719C42.7894 17.9987 44.5807 22.4082 44.5681 26.9966Z" fill="#67C16B"/>
<path d="M31.3176 21.237L27.2483 25.3062C25.1058 24.701 23.2903 24.1029 22.6573 22.4543C22.5196 22.1168 22.4648 21.7511 22.4975 21.388C22.5301 21.0249 22.6493 20.675 22.8451 20.3675C23.2026 19.8308 23.6692 19.3757 24.2146 19.0316C24.76 18.6876 25.3718 18.4625 26.0101 18.371C27.0825 18.2414 28.1688 18.4474 29.1193 18.9607C30.0698 19.4739 30.8378 20.2692 31.3176 21.237Z" fill="#67C16B"/>
<path d="M38.6694 13.8842L33.1046 19.4491C31.9845 17.7356 30.2356 16.5313 28.2353 16.0962V15.1224C28.2353 14.7995 28.1071 14.4898 27.8788 14.2615C27.6505 14.0333 27.3409 13.9051 27.018 13.9051C26.6952 13.9051 26.3855 14.0333 26.1572 14.2615C25.929 14.4898 25.8007 14.7995 25.8007 15.1224V15.978H25.6894C24.686 16.1158 23.7248 16.471 22.8729 17.0188C22.021 17.5667 21.2991 18.2941 20.7575 19.15C20.3803 19.771 20.1514 20.4706 20.0886 21.1945C20.0259 21.9184 20.131 22.647 20.3958 23.3236C21.2653 25.5913 23.2478 26.586 25.2651 27.2677L21.3071 31.2256C21.3071 31.2256 21.3071 31.177 21.3071 31.1562C21.2399 31.0109 21.1448 30.8802 21.0272 30.7717C20.9096 30.6632 20.7718 30.579 20.6216 30.5237C20.4714 30.4685 20.3118 30.4434 20.152 30.4499C19.9921 30.4563 19.835 30.4943 19.6898 30.5614C19.5445 30.6286 19.4139 30.7235 19.3055 30.8412C19.197 30.9588 19.1127 31.0967 19.0575 31.2469C19.0022 31.397 18.9771 31.5566 18.9836 31.7164C18.99 31.8763 19.0279 32.0335 19.095 32.1787C19.2272 32.4709 19.3663 32.7561 19.5194 33.0482L13.9267 38.6616C10.9504 35.3164 9.36525 30.9601 9.49574 26.4844C9.62623 22.0087 11.4625 17.7522 14.6286 14.5861C17.7947 11.4199 22.0513 9.58375 26.527 9.45326C31.0027 9.32277 35.359 10.9079 38.7042 13.8842H38.6694Z" fill="#67C16B"/>
<path d="M40.0597 13.5226C40.0048 13.4594 39.9442 13.4011 39.8788 13.3487C36.3064 10.1299 31.6354 8.40384 26.8282 8.52637C22.0211 8.64889 17.4441 10.6106 14.0403 14.0073C10.6365 17.404 8.66515 21.9768 8.53254 26.7837C8.39993 31.5905 10.1161 36.2653 13.3275 39.8445C13.3901 39.921 13.4597 39.9904 13.5362 40.067C15.2486 41.9397 17.3229 43.446 19.6336 44.4948C21.9443 45.5437 24.4436 46.1135 26.9807 46.1697C29.5177 46.2258 32.0398 45.7673 34.3947 44.8218C36.7496 43.8762 38.8884 42.4632 40.6821 40.6681C42.4758 38.8731 43.8871 36.7331 44.8308 34.3775C45.7745 32.0218 46.2311 29.4993 46.1729 26.9623C46.1147 24.4254 45.543 21.9264 44.4923 19.6165C43.4417 17.3066 41.9338 15.2336 40.0597 13.5226ZM27.0031 44.5607C22.4113 44.5636 18.0021 42.7623 14.7257 39.5453C14.4405 39.2601 14.1622 38.9679 13.8909 38.6618C10.9146 35.3166 9.3295 30.9603 9.46 26.4846C9.59049 22.0089 11.4267 17.7524 14.5929 14.5863C17.759 11.4201 22.0156 9.58394 26.4912 9.45345C30.9669 9.32296 35.3233 10.9081 38.6685 13.8844C38.9676 14.1487 39.2597 14.4269 39.5519 14.7191C41.9692 17.1874 43.6046 20.3141 44.2532 23.7076C44.9017 27.1011 44.5347 30.6106 43.1979 33.7965C41.8612 36.9823 39.6143 39.7029 36.7385 41.6176C33.8627 43.5324 30.4859 44.5562 27.031 44.5607H27.0031Z" fill="#204724"/>
<path d="M39.9845 14.2877L33.6823 20.5898L32.1867 22.0855L28.5765 25.6956L26.6079 27.6643L14.2887 39.9834C14.1929 40.0829 14.0654 40.1457 13.9282 40.1609C13.791 40.1762 13.6527 40.1428 13.5375 40.0668L13.4401 39.9904C13.3934 39.9498 13.3555 39.9002 13.3288 39.8444C13.2714 39.7316 13.2512 39.6034 13.2712 39.4784C13.2912 39.3534 13.3503 39.238 13.4401 39.1488L13.8992 38.6895L39.1358 13.4529C39.2319 13.3563 39.358 13.2955 39.4933 13.2803C39.6286 13.2652 39.7651 13.2966 39.8801 13.3695C39.9216 13.391 39.9592 13.4191 39.9914 13.4529C40.0184 13.4799 40.0418 13.5104 40.061 13.5434C40.136 13.6573 40.1694 13.7936 40.1554 13.9292C40.1415 14.0649 40.0811 14.1915 39.9845 14.2877Z" fill="#204724"/>
<path d="M30.204 37.7229C29.2906 38.0475 28.3282 38.2121 27.3589 38.2098C26.8528 38.211 26.3477 38.1668 25.8495 38.0777C25.1015 37.9397 24.3744 37.7059 23.6861 37.3821C22.195 36.6819 20.9526 35.5439 20.1246 34.1197C19.8981 33.7651 19.6914 33.3981 19.5055 33.0206C19.3525 32.7285 19.2134 32.4433 19.0812 32.1511C19.0141 32.0059 18.9762 31.8487 18.9697 31.6889C18.9633 31.529 18.9884 31.3695 19.0436 31.2193C19.0989 31.0691 19.1831 30.9314 19.2916 30.8137C19.4001 30.6961 19.5307 30.601 19.6759 30.5339C19.8212 30.4667 19.9782 30.4287 20.1381 30.4223C20.298 30.4158 20.4576 30.4409 20.6078 30.4962C20.7579 30.5514 20.8958 30.6358 21.0134 30.7443C21.131 30.8528 21.2261 30.9834 21.2932 31.1286C21.2932 31.1286 21.2932 31.1772 21.2932 31.1981C21.481 31.6015 21.6689 31.9842 21.8706 32.3389C22.46 33.5623 23.4386 34.5556 24.653 35.1632C25.3621 35.4831 26.1234 35.6715 26.8998 35.7195H27.2546C27.9643 35.7303 28.6705 35.6173 29.3414 35.3856C30.1372 35.1223 30.825 34.6059 31.2997 33.9151C31.7745 33.2243 32.0102 32.3971 31.9708 31.5598C31.79 29.2156 29.9466 28.5756 26.9555 27.7339L26.5659 27.6227C26.1277 27.4975 25.6825 27.3722 25.2443 27.2262C23.1922 26.5306 21.2098 25.5498 20.375 23.2821C20.1102 22.6055 20.0051 21.8769 20.0678 21.153C20.1306 20.4291 20.3595 19.7295 20.7368 19.1085C21.2783 18.2526 22.0003 17.5252 22.8521 16.9773C23.704 16.4295 24.6652 16.0743 25.6686 15.9365H25.7799C26.5922 15.8361 27.4158 15.8761 28.2145 16.0547C30.2148 16.4898 31.9637 17.6941 33.0838 19.4075C33.2808 19.712 33.4552 20.0306 33.6055 20.3606C33.6336 20.42 33.6523 20.4833 33.6611 20.5484C33.7363 20.8301 33.7074 21.1293 33.5796 21.3913C33.4518 21.6533 33.2337 21.8602 32.9655 21.9743C32.7061 22.0932 32.4134 22.1179 32.1378 22.0439C31.9642 21.9918 31.804 21.9025 31.6683 21.7824C31.5326 21.6623 31.4246 21.5142 31.3517 21.3483C31.3517 21.2927 31.303 21.237 31.2682 21.1814C30.7832 20.22 30.013 19.432 29.0629 18.9252C28.1128 18.4185 27.0294 18.2176 25.9608 18.3502C25.3225 18.4417 24.7106 18.6668 24.1653 19.0108C23.6199 19.3548 23.1532 19.81 22.7957 20.3467C22.6 20.6542 22.4808 21.0041 22.4481 21.3672C22.4154 21.7302 22.4702 22.096 22.6079 22.4335C23.2409 24.0821 25.0565 24.6802 27.1989 25.2854C27.3381 25.3341 27.4772 25.369 27.6163 25.4107L28.5276 25.675C31.1987 26.468 34.0924 27.6644 34.3915 31.3928C34.483 32.7609 34.1229 34.1213 33.3664 35.2649C32.6099 36.4084 31.4988 37.272 30.204 37.7229Z" fill="#204724"/>
<path d="M28.2217 15.1226V17.0494C28.2217 17.3723 28.0935 17.6818 27.8652 17.9101C27.6369 18.1384 27.3273 18.2667 27.0044 18.2667C26.6816 18.2667 26.3719 18.1384 26.1436 17.9101C25.9154 17.6818 25.7871 17.3723 25.7871 17.0494V15.1226C25.7871 14.7997 25.9154 14.49 26.1436 14.2617C26.3719 14.0334 26.6816 13.9053 27.0044 13.9053C27.3273 13.9053 27.6369 14.0334 27.8652 14.2617C28.0935 14.49 28.2217 14.7997 28.2217 15.1226Z" fill="#204724"/>
<path d="M28.2843 36.9576V39.74C28.2843 40.0629 28.156 40.3726 27.9278 40.6009C27.6995 40.8292 27.3898 40.9573 27.067 40.9573C26.7441 40.9573 26.4345 40.8292 26.2062 40.6009C25.9779 40.3726 25.8497 40.0629 25.8497 39.74V36.9576C25.8466 36.6556 25.9572 36.3636 26.1595 36.1394C26.3619 35.9152 26.6411 35.7752 26.9418 35.7473C26.9832 35.7404 27.0255 35.7404 27.067 35.7473C27.1431 35.7366 27.2204 35.7366 27.2965 35.7473C27.577 35.8011 27.8296 35.9519 28.0102 36.1732C28.1908 36.3944 28.2878 36.672 28.2843 36.9576Z" fill="#204724"/>
</g>
<defs>
<clipPath id="clip0_518_457">
<rect width="54" height="54" fill="white"/>
</clipPath>
</defs>
</svg>
