<svg xmlns="http://www.w3.org/2000/svg" width="39" height="36" viewBox="0 0 39 36" fill="none">
<g clip-path="url(#clip0_545_2389)">
<path d="M3.21847 12.9981C3.19036 13.1147 3.17626 13.2344 3.17653 13.3545C3.17798 13.5452 3.21695 13.7337 3.29114 13.9091C3.36534 14.0845 3.47329 14.2433 3.60877 14.3763L4.76574 15.519C5.03364 15.7851 5.3949 15.9338 5.77095 15.9327H5.78994C5.9792 15.9307 6.16618 15.8909 6.34009 15.8155C6.514 15.7402 6.67138 15.6308 6.80314 15.4938L6.90996 15.3821C7.46498 15.8804 8.43925 16.868 8.84154 17.9684C9.16618 18.7881 9.56728 19.5748 10.0394 20.3181L8.21964 22.1302C8.0354 22.3126 7.88905 22.5302 7.78912 22.7703C7.6892 23.0104 7.63773 23.2682 7.63768 23.5286C7.63589 23.7892 7.68564 24.0475 7.78403 24.2885C7.88241 24.5294 8.02745 24.7482 8.21067 24.932L9.97955 26.7149C10.1608 26.8992 10.3765 27.0456 10.6141 27.1455C10.8518 27.2453 11.1067 27.2968 11.3641 27.2968C11.8609 27.2967 12.3389 27.1055 12.7008 26.7622L14.7252 24.8555H14.7362C15.1755 24.8513 15.5994 24.6917 15.934 24.4045C16.2387 24.1509 16.4686 23.818 16.5989 23.442C17.2117 23.5673 17.8489 23.4575 18.3857 23.1339C18.5998 22.9996 18.7853 22.8236 18.9311 22.6162C19.077 22.4087 19.1804 22.1741 19.2352 21.9259C19.8099 22.0126 20.3968 21.9016 20.9013 21.6108C21.3188 21.3709 21.6247 20.9736 21.7518 20.5063C22.2116 20.6202 22.6961 20.5737 23.1264 20.3745C23.7393 20.0724 24.1156 19.4433 24.2464 18.515C24.3542 17.9774 23.9469 17.3371 22.8099 16.1945L26.3327 12.39C26.5143 12.5686 26.7107 12.7313 26.9197 12.8763L27.319 13.1189L28.0427 12.389L29.1048 13.4602L28.8672 13.7058C28.6783 13.9019 28.5733 14.165 28.5748 14.4384C28.5763 14.7118 28.6842 14.9736 28.8752 15.1676L30.5263 16.8327C30.622 16.9291 30.7357 17.0054 30.8607 17.0573C30.9858 17.1091 31.1198 17.1354 31.255 17.1348C31.3902 17.1354 31.5243 17.1091 31.6493 17.0573C31.7744 17.0054 31.8881 16.9291 31.9837 16.8327L35.8429 12.9417C36.0327 12.7483 36.1402 12.488 36.1426 12.216C36.145 11.944 36.0422 11.6817 35.8559 11.485L34.1938 9.74431C34.0984 9.64373 33.9837 9.56367 33.8568 9.50899C33.7298 9.45432 33.5932 9.42614 33.4552 9.42616C33.3208 9.42611 33.1877 9.45275 33.0635 9.50457C32.9393 9.55639 32.8265 9.63238 32.7314 9.72819L31.6483 8.63586C31.769 8.37812 31.8131 8.09063 31.7752 7.80816C31.7373 7.52568 31.619 7.26031 31.4347 7.0442C30.3626 5.79786 28.3631 3.52063 27.0205 2.30751C24.9881 0.466186 23.327 -0.415718 20.3952 0.193359L20.3273 0.212482C18.7561 0.740013 18.247 1.58467 18.2949 2.19878C18.3086 2.40856 18.3936 2.6072 18.5356 2.76109C18.6777 2.91497 18.868 3.01469 19.0745 3.04345H19.1074C20.1915 3.16526 22.0023 3.68072 21.9934 5.76769C21.8865 6.94859 22.0083 7.61301 22.5354 8.37813L20.1686 10.6605C19.0445 9.74734 17.2088 9.82383 15.5307 9.9839C14.4067 10.0916 13.689 8.92681 13.4894 8.55633L13.5632 8.47984C13.8254 8.20594 13.9708 7.83935 13.9682 7.45865C13.9656 7.07794 13.8152 6.71342 13.5493 6.44321L12.4432 5.32773C12.31 5.19283 12.1516 5.08593 11.9772 5.01317C11.8028 4.94042 11.6158 4.90328 11.427 4.9039H11.42C11.3532 4.90486 11.2865 4.91026 11.2204 4.92002L9.26879 2.95182C8.94227 2.62353 8.50001 2.4392 8.03895 2.4392C7.57789 2.4392 7.13566 2.62353 6.80914 2.95182L1.2689 8.53922C1.10682 8.7017 0.97827 8.89498 0.890714 9.10787C0.803157 9.32076 0.758319 9.54908 0.758793 9.77956C0.758319 10.01 0.803157 10.2383 0.890714 10.4512C0.97827 10.6641 1.10682 10.8574 1.2689 11.0198L3.21847 12.9981ZM11.8792 25.8843C11.7355 26.0206 11.5447 26.0949 11.3475 26.0915C11.1503 26.0881 10.9621 26.0073 10.8231 25.8663L9.05418 24.0823C8.98282 24.0111 8.92635 23.9263 8.88811 23.8327C8.84987 23.7392 8.83065 23.6388 8.83157 23.5376C8.83142 23.4366 8.8513 23.3366 8.89004 23.2434C8.92878 23.1502 8.98561 23.0657 9.05717 22.995L10.7083 21.35C11.5468 22.552 12.538 23.6997 13.4794 24.3773L11.8792 25.8843ZM28.8902 11.5383L30.8587 9.55304L31.8889 10.593L29.9423 12.5994L28.8902 11.5383ZM34.8796 12.2068L31.255 15.8623L29.8385 14.4347L33.1188 11.0531C33.1317 11.041 33.1467 11.0319 33.1597 11.0188C33.1745 11.0026 33.1881 10.9855 33.2006 10.9675L33.4502 10.7108L34.8796 12.2068ZM19.6625 1.91386C19.8322 1.75882 20.1406 1.55447 20.6687 1.37225C23.1104 0.868878 24.4061 1.56755 26.2159 3.20753C27.5585 4.42367 29.6768 6.84992 30.5253 7.83853C30.568 7.8887 30.5904 7.95323 30.588 8.01929C30.5856 8.08534 30.5586 8.14806 30.5123 8.19492L27.1892 11.5473C27.0684 11.4376 26.9117 11.2906 26.713 11.0983C26.3247 10.7218 25.7727 10.1681 24.9981 9.35469C24.458 8.80098 24.0687 8.39324 23.7892 8.05699C23.7828 8.0475 23.7758 8.03842 23.7682 8.02981V8.02479C23.1214 7.23752 23.0984 6.84487 23.1892 5.8633V5.81399C23.2202 2.94378 20.8703 2.13534 19.6625 1.90983V1.91386ZM24.1396 10.1943C24.6766 10.7581 25.1119 11.201 25.4662 11.5574L21.9464 15.3589C21.6969 15.1233 21.4257 14.8703 21.1329 14.5998C20.6976 14.1971 20.3223 13.8518 20.1167 13.6353C19.6984 13.1974 19.6475 12.9981 19.6425 12.9477C19.6425 12.9266 19.6345 12.8793 19.7653 12.7081C20.2644 12.232 20.5369 12.0085 20.5399 12.0034L20.9702 11.6491L20.9332 11.5947L23.2991 9.31242C23.5406 9.57417 23.8181 9.86106 24.1396 10.1903V10.1943ZM15.368 11.2061C15.4569 11.2061 15.5467 11.2061 15.6396 11.193C17.083 11.0561 18.4965 11.0118 19.2801 11.5142C19.1733 11.6148 19.0506 11.7276 18.9108 11.8605L18.8808 11.8897L18.8539 11.9229C18.199 12.7494 18.3138 13.4883 19.2532 14.4729C19.4858 14.7166 19.8751 15.077 20.3243 15.4908C21.0899 16.1955 22.8608 17.8314 23.0585 18.361C23.0076 18.7133 22.8858 19.1483 22.5973 19.2932C22.2359 19.4765 21.642 19.2298 21.4653 19.1311L20.2604 18.4395L20.5878 19.7986C20.6727 20.152 20.5759 20.3976 20.2884 20.5718C19.8801 20.8164 19.2702 20.7882 19.0585 20.5939L17.7608 19.403L18.0673 21.1466C18.1481 21.6097 18.0423 21.9279 17.7439 22.1191C17.3735 22.3557 16.7656 22.3436 16.4162 22.095L15.0716 21.1356L15.4908 22.7413C15.5477 22.9578 15.407 23.2819 15.1704 23.4782C15.0811 23.563 14.969 23.6195 14.8482 23.6406C14.7273 23.6617 14.603 23.6466 14.4906 23.5971C13.4724 23.0111 12.2515 21.5362 11.3102 20.0825V20.0775C10.7112 19.1473 10.2201 18.2261 9.97555 17.5546C9.4944 16.2388 8.40632 15.1092 7.75647 14.5192L12.6309 9.46038C13.0471 10.1248 13.9535 11.2021 15.368 11.2021V11.2061ZM12.6978 7.30498C12.742 7.35019 12.7667 7.41114 12.7667 7.47462C12.7667 7.53811 12.742 7.59906 12.6978 7.64427L5.94067 14.6552C5.91898 14.6783 5.89281 14.6968 5.86381 14.7094C5.8348 14.7221 5.80355 14.7286 5.77195 14.7287C5.7404 14.7294 5.70905 14.7237 5.67973 14.7119C5.65041 14.7001 5.62371 14.6826 5.60126 14.6602L4.44331 13.5176C4.39787 13.4723 4.37201 13.4108 4.37142 13.3464C4.3711 13.3147 4.37704 13.2833 4.38887 13.2539C4.40069 13.2245 4.41818 13.1978 4.44031 13.1753L11.2483 6.19049C11.2939 6.14533 11.3551 6.11972 11.419 6.11901C11.4505 6.11883 11.4817 6.12496 11.5109 6.13706C11.54 6.14915 11.5665 6.167 11.5887 6.18951L12.6978 7.30498ZM2.10742 9.40001L7.64765 3.81359C7.6979 3.76285 7.75758 3.72259 7.82327 3.69512C7.88895 3.66766 7.95936 3.65354 8.03047 3.65354C8.10158 3.65354 8.17201 3.66766 8.2377 3.69512C8.30339 3.72259 8.36304 3.76285 8.41329 3.81359L10.1662 5.58045L3.91424 11.9944L2.10742 10.1722C2.05703 10.1217 2.01707 10.0616 1.98983 9.99541C1.96258 9.92923 1.94861 9.85824 1.94871 9.78658C1.94817 9.71412 1.96192 9.64227 1.98917 9.57521C2.01642 9.50815 2.05661 9.44723 2.10742 9.39598V9.40001Z" fill="#888888"/>
<path d="M36.6637 31.7909H33.8975V27.0895H34.5584C35.063 27.0887 35.5468 26.8861 35.9036 26.5263C36.2604 26.1664 36.4612 25.6785 36.462 25.1696C36.4615 24.6606 36.2607 24.1726 35.9039 23.8127C35.547 23.4527 35.0631 23.2503 34.5584 23.2498H32.0398C31.5351 23.2503 31.0512 23.4527 30.6943 23.8127C30.3374 24.1726 30.1367 24.6606 30.1362 25.1696C30.137 25.6785 30.3378 26.1664 30.6946 26.5263C31.0514 26.8861 31.5352 27.0887 32.0398 27.0895H32.6996V31.7909H2.83731C2.28397 31.7912 1.75337 32.0129 1.36201 32.4074C0.970644 32.802 0.750529 33.337 0.75 33.895C0.750529 34.4532 0.9706 34.9883 1.36193 35.3829C1.75327 35.7776 2.28388 35.9996 2.83731 36.0001H36.6637C37.2169 35.9996 37.7474 35.7778 38.1387 35.3833C38.53 34.9889 38.7502 34.454 38.751 33.896C38.7507 33.3378 38.5307 32.8025 38.1393 32.4078C37.7479 32.0131 37.2172 31.7912 36.6637 31.7909ZM31.3341 25.1696C31.3343 24.9809 31.4088 24.8 31.5411 24.6666C31.6734 24.5332 31.8527 24.4581 32.0398 24.4578H34.5584C34.7455 24.4581 34.9248 24.5332 35.0571 24.6666C35.1894 24.8 35.2639 24.9809 35.2641 25.1696C35.2636 25.3582 35.1891 25.539 35.0568 25.6723C34.9246 25.8057 34.7454 25.8809 34.5584 25.8814H32.0398C31.8527 25.8811 31.6734 25.806 31.5411 25.6726C31.4088 25.5392 31.3343 25.3583 31.3341 25.1696ZM36.6637 34.792H2.83731C2.6015 34.7917 2.37543 34.6972 2.20868 34.529C2.04194 34.3609 1.94815 34.1329 1.94789 33.895C1.94842 33.6574 2.04231 33.4296 2.20902 33.2617C2.37574 33.0938 2.60167 32.9993 2.83731 32.999H36.6637C36.8993 32.9993 37.1252 33.0938 37.2919 33.2617C37.4587 33.4296 37.5526 33.6574 37.5531 33.895C37.5528 34.1329 37.459 34.3609 37.2923 34.529C37.1256 34.6972 36.8995 34.7917 36.6637 34.792Z" fill="#888888"/>
</g>
<defs>
<clipPath id="clip0_545_2389">
<rect width="38" height="36" fill="white" transform="translate(0.75)"/>
</clipPath>
</defs>
</svg>
