<svg xmlns="http://www.w3.org/2000/svg" width="55" height="54" viewBox="0 0 55 54" fill="none">
  <g clip-path="url(#clip0_518_395)">
    <path d="M27.5033 53.6593C42.2249 53.6593 54.159 41.7251 54.159 27.0036C54.159 12.2821 42.2249 0.3479 27.5033 0.3479C12.7818 0.3479 0.847656 12.2821 0.847656 27.0036C0.847656 41.7251 12.7818 53.6593 27.5033 53.6593Z" fill="#8BFFF5" stroke="#4AFEF0" stroke-miterlimit="10"/>
    <path d="M27.211 24.1723C27.1109 24.2666 26.9798 24.321 26.8423 24.3254C26.7025 24.3227 26.5686 24.2682 26.4667 24.1723L22.8287 20.5274L22.0913 19.8318L18.6133 16.3537C18.5168 16.2539 18.4629 16.1204 18.4629 15.9815C18.4629 15.8427 18.5168 15.7092 18.6133 15.6094C18.7111 15.5117 18.8437 15.4568 18.982 15.4568C19.1202 15.4568 19.2528 15.5117 19.3506 15.6094L27.1971 23.4558C27.2905 23.5509 27.3439 23.6781 27.3465 23.8113C27.3491 23.9445 27.3006 24.0737 27.211 24.1723Z" fill="#0A5757"/>
    <path d="M26.8914 16.451L23.5456 19.7899L19.1633 24.1723C19.0647 24.2689 18.9326 24.3237 18.7946 24.3253C18.6585 24.3241 18.5285 24.2691 18.4329 24.1723C18.3836 24.1243 18.3445 24.067 18.3178 24.0036C18.2911 23.9403 18.2773 23.8723 18.2773 23.8036C18.2773 23.7349 18.2911 23.6668 18.3178 23.6035C18.3445 23.5402 18.3836 23.4829 18.4329 23.4349L22.0709 19.7969L22.8152 19.0595L26.1541 15.7137C26.2021 15.6644 26.2594 15.6253 26.3227 15.5986C26.386 15.5719 26.4541 15.5581 26.5228 15.5581C26.5915 15.5581 26.6595 15.5719 26.7228 15.5986C26.7862 15.6253 26.8435 15.6644 26.8914 15.7137C26.9891 15.8115 27.044 15.9441 27.044 16.0824C27.044 16.2206 26.9891 16.3531 26.8914 16.451Z" fill="#0A5757"/>
    <path d="M31.6695 29.3965C31.6677 29.5343 31.6122 29.6659 31.5147 29.7634C31.4172 29.8608 31.2856 29.9164 31.1478 29.9182H18.8147C18.6769 29.9164 18.5452 29.8608 18.4478 29.7634C18.3503 29.6659 18.2948 29.5343 18.293 29.3965C18.293 29.2581 18.3479 29.1254 18.4458 29.0275C18.5436 28.9297 18.6763 28.8748 18.8147 28.8748H31.1478C31.2862 28.8748 31.4189 28.9297 31.5167 29.0275C31.6145 29.1254 31.6695 29.2581 31.6695 29.3965Z" fill="#0A5757"/>
    <path d="M37.1726 25.1741C37.1727 25.3131 37.1179 25.4466 37.0203 25.5455C36.9226 25.6445 36.7899 25.7009 36.6509 25.7028H29.4514C29.3124 25.7009 29.1797 25.6445 29.0821 25.5455C28.9844 25.4466 28.9297 25.3131 28.9297 25.1741C28.9315 25.0369 28.9873 24.9061 29.0849 24.8097C29.1826 24.7134 29.3142 24.6593 29.4514 24.6594H36.6301C36.6997 24.6566 36.7693 24.6678 36.8345 24.6923C36.8998 24.7168 36.9595 24.7542 37.01 24.8022C37.0606 24.8502 37.1011 24.9078 37.129 24.9717C37.1569 25.0355 37.1718 25.1044 37.1726 25.1741Z" fill="#0A5757"/>
    <path d="M36.9918 20.9588C36.9918 21.0279 36.9781 21.0963 36.9514 21.16C36.9248 21.2238 36.8857 21.2816 36.8365 21.3301C36.7873 21.3786 36.729 21.417 36.6649 21.4428C36.6008 21.4686 36.5322 21.4814 36.4631 21.4805H29.4514C29.313 21.4805 29.1803 21.4255 29.0825 21.3276C28.9847 21.2298 28.9297 21.0971 28.9297 20.9588C28.9297 20.8204 28.9847 20.6877 29.0825 20.5898C29.1803 20.492 29.313 20.4371 29.4514 20.4371H36.4631C36.5322 20.4361 36.6008 20.449 36.6649 20.4748C36.729 20.5006 36.7873 20.5388 36.8365 20.5874C36.8857 20.6359 36.9248 20.6937 36.9514 20.7574C36.9781 20.8212 36.9918 20.8897 36.9918 20.9588Z" fill="#0A5757"/>
    <path d="M40.8043 31.5945C40.8043 31.6636 40.7905 31.732 40.7639 31.7958C40.7372 31.8595 40.6982 31.9173 40.649 31.9659C40.5998 32.0144 40.5415 32.0527 40.4774 32.0785C40.4133 32.1043 40.3447 32.1171 40.2756 32.1162H35.7194C35.6566 32.1162 35.5965 32.1411 35.5521 32.1855C35.5078 32.2298 35.4829 32.29 35.4829 32.3527V34.8291C35.481 35.1679 35.3456 35.4925 35.106 35.7321C34.8663 35.9717 34.5418 36.1071 34.2029 36.1089H27.9425C27.9118 36.108 27.8812 36.1133 27.8525 36.1244C27.8238 36.1355 27.7977 36.1523 27.7756 36.1737C27.7536 36.1951 27.7361 36.2207 27.7241 36.2491C27.7121 36.2774 27.706 36.3078 27.706 36.3385V38.4949C27.7069 38.6627 27.6746 38.8289 27.6111 38.9842C27.5475 39.1394 27.4539 39.2806 27.3356 39.3995C27.2173 39.5184 27.0767 39.6128 26.9218 39.6772C26.7669 39.7417 26.6008 39.7748 26.433 39.7748H20.7916C20.7301 39.7748 20.671 39.7988 20.6268 39.8416C20.5827 39.8845 20.5569 39.9429 20.5551 40.0044V42.5572C20.5551 42.6254 20.5416 42.6929 20.5153 42.7558C20.489 42.8188 20.4505 42.8758 20.4019 42.9237C20.3534 42.9716 20.2958 43.0094 20.2325 43.0349C20.1693 43.0603 20.1016 43.0729 20.0334 43.072C19.8963 43.072 19.7646 43.018 19.667 42.9217C19.5693 42.8253 19.5135 42.6944 19.5117 42.5572V40.0044C19.5136 39.6662 19.6492 39.3424 19.8891 39.1038C20.1289 38.8653 20.4534 38.7314 20.7916 38.7314H26.433C26.4945 38.7296 26.5529 38.7039 26.5958 38.6597C26.6386 38.6156 26.6626 38.5565 26.6626 38.4949V36.3385C26.6626 36.1708 26.6957 36.0047 26.7601 35.8498C26.8245 35.6949 26.9189 35.5542 27.0379 35.4359C27.1568 35.3176 27.298 35.224 27.4532 35.1605C27.6085 35.0969 27.7747 35.0646 27.9425 35.0655H34.2029C34.2657 35.0655 34.3258 35.0407 34.3702 34.9963C34.4145 34.952 34.4395 34.8918 34.4395 34.8291V32.3527C34.4413 32.0138 34.5767 31.6893 34.8164 31.4497C35.056 31.21 35.3805 31.0746 35.7194 31.0728H40.2756C40.4146 31.0727 40.548 31.1275 40.647 31.2252C40.7459 31.3228 40.8024 31.4555 40.8043 31.5945Z" fill="#0A5757"/>
    <path d="M39.7672 10.9211H15.2401C14.852 10.923 14.4805 11.0785 14.2067 11.3535C13.933 11.6286 13.7793 12.0008 13.7793 12.3889V41.6044C13.7793 41.9918 13.9332 42.3634 14.2072 42.6373C14.4811 42.9113 14.8527 43.0651 15.2401 43.0651H39.7672C40.1546 43.0651 40.5262 42.9113 40.8001 42.6373C41.0741 42.3634 41.228 41.9918 41.228 41.6044V12.3889C41.228 12.0008 41.0743 11.6286 40.8005 11.3535C40.5268 11.0785 40.1553 10.923 39.7672 10.9211ZM40.1846 41.6113C40.1846 41.722 40.1406 41.8282 40.0623 41.9065C39.984 41.9848 39.8779 42.0287 39.7672 42.0287H15.2401C15.1294 42.0287 15.0232 41.9848 14.945 41.9065C14.8667 41.8282 14.8227 41.722 14.8227 41.6113V12.3958C14.8227 12.2845 14.8664 12.1776 14.9445 12.0982C15.0226 12.0188 15.1287 11.9733 15.2401 11.9715H39.7672C39.8785 11.9733 39.9847 12.0188 40.0628 12.0982C40.1408 12.1776 40.1846 12.2845 40.1846 12.3958V41.6113Z" fill="#0A5757"/>
    <path d="M40.1853 32.1162V41.6113C40.1853 41.722 40.1414 41.8282 40.0631 41.9064C39.9848 41.9847 39.8787 42.0286 39.768 42.0286H20.5762V40.0045C20.578 39.9429 20.6037 39.8845 20.6479 39.8417C20.692 39.7988 20.7511 39.7748 20.8127 39.7749H26.4541C26.6218 39.7749 26.7879 39.7417 26.9428 39.6773C27.0977 39.6129 27.2383 39.5185 27.3566 39.3995C27.4749 39.2806 27.5686 39.1395 27.6321 38.9842C27.6957 38.829 27.7279 38.6627 27.727 38.495V36.3386C27.727 36.3079 27.7332 36.2774 27.7451 36.2491C27.7571 36.2208 27.7746 36.1952 27.7967 36.1738C27.8187 36.1524 27.8449 36.1356 27.8735 36.1244C27.9022 36.1133 27.9328 36.1081 27.9635 36.109H34.224C34.5629 36.1072 34.8874 35.9718 35.127 35.7321C35.3667 35.4925 35.5021 35.168 35.5039 34.8291V32.3528C35.5039 32.2901 35.5288 32.2299 35.5732 32.1855C35.6175 32.1411 35.6777 32.1162 35.7404 32.1162H40.1853Z" fill="#15ECE2"/>
    <path d="M39.7667 11.9644H15.2396C15.1283 11.9662 15.0222 12.0117 14.9441 12.0911C14.866 12.1705 14.8223 12.2774 14.8223 12.3887V41.6042C14.8223 41.7149 14.8662 41.8211 14.9445 41.8994C15.0228 41.9776 15.1289 42.0216 15.2396 42.0216H19.5315V39.9974C19.5334 39.6591 19.669 39.3353 19.9089 39.0968C20.1487 38.8583 20.4732 38.7244 20.8114 38.7244H26.4528C26.5143 38.7226 26.5727 38.6969 26.6156 38.6527C26.6584 38.6086 26.6824 38.5494 26.6824 38.4879V36.3315C26.6824 36.1638 26.7155 35.9977 26.7799 35.8428C26.8443 35.6879 26.9387 35.5472 27.0577 35.4289C27.1766 35.3106 27.3178 35.217 27.473 35.1535C27.6283 35.0899 27.7945 35.0576 27.9623 35.0585H34.2228C34.2855 35.0585 34.3456 35.0337 34.39 34.9893C34.4343 34.945 34.4593 34.8848 34.4593 34.822V32.3457C34.4611 32.0068 34.5965 31.6823 34.8362 31.4427C35.0758 31.203 35.4003 31.0676 35.7392 31.0657H40.2119V12.3817C40.2111 12.3248 40.1988 12.2687 40.1757 12.2166C40.1527 12.1645 40.1194 12.1175 40.0779 12.0786C40.0363 12.0396 39.9874 12.0095 39.9339 11.9899C39.8805 11.9702 39.8236 11.9616 39.7667 11.9644ZM29.4509 20.4369H36.4626C36.5317 20.436 36.6003 20.4488 36.6644 20.4746C36.7285 20.5004 36.7868 20.5387 36.836 20.5872C36.8852 20.6358 36.9243 20.6935 36.9509 20.7573C36.9776 20.8211 36.9913 20.8895 36.9913 20.9586C36.9913 21.0277 36.9776 21.0961 36.9509 21.1599C36.9243 21.2236 36.8852 21.2814 36.836 21.33C36.7868 21.3785 36.7285 21.4168 36.6644 21.4426C36.6003 21.4684 36.5317 21.4813 36.4626 21.4803H29.4509C29.3125 21.4803 29.1798 21.4253 29.082 21.3275C28.9842 21.2296 28.9292 21.097 28.9292 20.9586C28.9292 20.8203 28.9842 20.6875 29.082 20.5897C29.1798 20.4918 29.3125 20.4369 29.4509 20.4369ZM18.4533 23.4349L22.0914 19.7969L18.6133 16.3189C18.5169 16.219 18.4629 16.0856 18.4629 15.9467C18.4629 15.8079 18.5169 15.6745 18.6133 15.5746C18.7112 15.4769 18.8438 15.422 18.982 15.422C19.1203 15.422 19.2529 15.4769 19.3507 15.5746L22.8287 19.0527L26.1676 15.7068C26.2156 15.6575 26.2729 15.6184 26.3362 15.5917C26.3996 15.565 26.4676 15.5513 26.5363 15.5513C26.605 15.5513 26.673 15.565 26.7364 15.5917C26.7997 15.6184 26.857 15.6575 26.905 15.7068C27.0027 15.8046 27.0575 15.9372 27.0575 16.0754C27.0575 16.2137 27.0027 16.3463 26.905 16.4441L23.5591 19.783L27.2041 23.428C27.3018 23.5258 27.3567 23.6584 27.3567 23.7967C27.3567 23.9349 27.3018 24.0675 27.2041 24.1654C27.104 24.2597 26.9729 24.3141 26.8354 24.3184C26.6955 24.3158 26.5617 24.2612 26.4598 24.1654L22.8218 20.5204L19.1768 24.1654C19.0782 24.262 18.9461 24.3168 18.8081 24.3184C18.672 24.3172 18.542 24.2622 18.4464 24.1654C18.3987 24.1171 18.361 24.0598 18.3355 23.9969C18.31 23.934 18.2972 23.8666 18.2979 23.7987C18.2985 23.7308 18.3126 23.6637 18.3393 23.6013C18.3659 23.5389 18.4047 23.4823 18.4533 23.4349ZM31.1482 29.9181H18.8151C18.6773 29.9163 18.5456 29.8607 18.4481 29.7633C18.3507 29.6658 18.2952 29.5342 18.2934 29.3963C18.2934 29.258 18.3483 29.1252 18.4462 29.0274C18.544 28.9296 18.6767 28.8746 18.8151 28.8746H31.1482C31.2865 28.8746 31.4192 28.9296 31.5171 29.0274C31.6149 29.1252 31.6699 29.258 31.6699 29.3963C31.6681 29.5342 31.6125 29.6658 31.5151 29.7633C31.4176 29.8607 31.286 29.9163 31.1482 29.9181ZM36.6504 25.7026H29.4509C29.3119 25.7008 29.1792 25.6443 29.0816 25.5454C28.9839 25.4464 28.9292 25.313 28.9292 25.174C28.931 25.0368 28.9868 24.9059 29.0844 24.8096C29.1821 24.7133 29.3137 24.6592 29.4509 24.6592H36.6296C36.7667 24.6592 36.8984 24.7133 36.996 24.8096C37.0937 24.9059 37.1494 25.0368 37.1513 25.174C37.1513 25.313 37.0965 25.4464 36.9989 25.5454C36.9012 25.6443 36.7686 25.7008 36.6296 25.7026H36.6504Z" fill="#15ECE2"/>
  </g>
  <defs>
    <clipPath id="clip0_518_395">
      <rect width="54" height="54" fill="white" transform="translate(0.5)"/>
    </clipPath>
  </defs>
</svg>
