<svg width="394" height="338" viewBox="0 0 394 338" fill="none" xmlns="http://www.w3.org/2000/svg">
<path opacity="0.6" d="M387.194 237.543C402.194 274.21 389.861 295.043 350.194 300.043C310.528 305.043 278.694 312.21 254.694 321.543C230.694 330.877 203.694 336.043 173.694 337.043C143.694 338.043 110.194 331.877 73.1944 318.543C36.1944 305.21 13.3611 279.21 4.69444 240.543C-3.97222 201.877 -0.638888 165.21 14.6944 130.543C30.0278 95.8765 56.3611 75.8765 93.6944 70.5432C131.028 65.2099 161.194 51.2099 184.194 28.5432C207.194 5.87654 235.528 -3.29012 269.194 1.04321C302.861 5.37654 330.361 20.8765 351.694 47.5432C373.028 74.2099 380.528 103.377 374.194 135.043C367.861 166.71 372.194 200.877 387.194 237.543Z" fill="#AED77F"/>
</svg>
